<svg width="32" height="32" viewBox="0 0 32 32" fill="none" xmlns="http://www.w3.org/2000/svg">
<path d="M16 32C24.8366 32 32 24.8366 32 16C32 7.16345 24.8366 0 16 0C7.16344 0 0 7.16345 0 16C0 24.8366 7.16344 32 16 32Z" fill="#FF4500"/>
<path d="M26.6796 15.9999C26.6796 14.7042 25.6391 13.6637 24.3434 13.6637C23.7152 13.6637 23.1459 13.919 22.7336 14.3116C21.1434 13.1533 18.9447 12.4073 16.4907 12.3288L17.5508 7.32264L21.0256 8.06865C21.0649 8.95208 21.7913 9.65883 22.6943 9.65883C23.617 9.65883 24.3631 8.91282 24.3631 7.99012C24.3631 7.06742 23.617 6.32141 22.6943 6.32141C22.0465 6.32141 21.4772 6.69442 21.2023 7.24411L17.3152 6.41957C17.217 6.39994 17.0993 6.41957 17.0011 6.47847C16.9029 6.53736 16.844 6.63552 16.8244 6.73368L15.6465 12.3091C13.1532 12.3877 10.9348 13.114 9.30539 14.292C8.89312 13.8993 8.32379 13.6441 7.69557 13.6441C6.39986 13.6441 5.35938 14.6846 5.35938 15.9803C5.35938 16.9226 5.9287 17.7472 6.73361 18.1006C6.69434 18.3361 6.67471 18.5717 6.67471 18.8073C6.67471 22.3999 10.8563 25.3055 16.0195 25.3055C21.1827 25.3055 25.3643 22.3999 25.3643 18.8073C25.3643 18.5717 25.3446 18.3361 25.3054 18.1006C26.1103 17.7668 26.6796 16.9619 26.6796 15.9999ZM10.6796 17.6687C10.6796 16.746 11.4256 15.9999 12.3483 15.9999C13.271 15.9999 14.017 16.746 14.017 17.6687C14.017 18.5914 13.271 19.3374 12.3483 19.3374C11.4256 19.3374 10.6796 18.5914 10.6796 17.6687ZM19.9655 22.0662C18.8269 23.2048 16.6477 23.2834 15.9999 23.2834C15.352 23.2834 13.1729 23.2048 12.0342 22.0662C11.8575 21.8895 11.8575 21.6147 12.0342 21.4576C12.2109 21.2809 12.4858 21.2809 12.6428 21.4576C13.3692 22.184 14.9005 22.4196 15.9802 22.4196C17.06 22.4196 18.6109 22.1644 19.3373 21.438C19.514 21.2613 19.7888 21.2613 19.9459 21.438C20.1422 21.6343 20.1422 21.9091 19.9655 22.0662ZM19.671 19.3374C18.7483 19.3374 18.0023 18.5914 18.0023 17.6687C18.0023 16.746 18.7483 15.9999 19.671 15.9999C20.5937 15.9999 21.3397 16.746 21.3397 17.6687C21.3397 18.5914 20.5937 19.3374 19.671 19.3374Z" fill="white"/>
</svg>
